<?xml version="1.0" encoding="utf-8"?>
<!-- Generator: Adobe Illustrator 15.0.0, SVG Export Plug-In . SVG Version: 6.00 Build 0)  -->
<!DOCTYPE svg PUBLIC "-//W3C//DTD SVG 1.1//EN" "http://www.w3.org/Graphics/SVG/1.1/DTD/svg11.dtd">
<svg version="1.1" id="Layer_1" xmlns="http://www.w3.org/2000/svg" xmlns:xlink="http://www.w3.org/1999/xlink" x="0px" y="0px"
	 width="233.843px" height="257.592px" viewBox="202.012 246.905 233.843 257.592"
	 enable-background="new 202.012 246.905 233.843 257.592" xml:space="preserve">
<path d="M420.614,391.799c16.1,0,24.148-48.296,0-48.296h-48.299c48.299-80.498,13.332-96.598,0-96.598
	c0,40.857-60.026,86.378-120.57,104.591h-40.818c-4.923,0-8.914,3.895-8.914,8.699v111.484c0,4.807,3.991,8.699,8.914,8.699h40.938
	c68.237,7.15,44.492,24.119,112.401,24.119c16.101,0,32.198-8.049,32.198-24.15c16.101,0,24.149-40.248,16.101-40.248
	C428.661,440.099,438.978,391.799,420.614,391.799z"/>
</svg>
