<?xml version="1.0" encoding="utf-8"?>
<!-- Generator: Adobe Illustrator 15.0.0, SVG Export Plug-In . SVG Version: 6.00 Build 0)  -->
<!DOCTYPE svg PUBLIC "-//W3C//DTD SVG 1.1//EN" "http://www.w3.org/Graphics/SVG/1.1/DTD/svg11.dtd">
<svg version="1.1" id="Layer_1" xmlns="http://www.w3.org/2000/svg" xmlns:xlink="http://www.w3.org/1999/xlink" x="0px" y="0px"
	 width="233.843px" height="257.593px" viewBox="202.012 246.905 233.843 257.593"
	 enable-background="new 202.012 246.905 233.843 257.593" xml:space="preserve">
<path d="M217.253,359.604c-16.1,0-24.148,48.296,0,48.296h48.299c-48.299,80.498-13.332,96.597,0,96.597
	c0-40.857,60.025-86.377,120.57-104.59h40.818c4.923,0,8.914-3.895,8.914-8.699V279.723c0-4.806-3.991-8.699-8.914-8.699h-40.938
	c-68.237-7.15-44.492-24.119-112.401-24.119c-16.101,0-32.198,8.05-32.198,24.15c-16.101,0-24.149,40.249-16.101,40.249
	C209.205,311.304,198.89,359.604,217.253,359.604z"/>
</svg>
