<?xml version="1.0" encoding="utf-8"?>
<!-- Generator: Adobe Illustrator 16.0.0, SVG Export Plug-In . SVG Version: 6.00 Build 0)  -->
<!DOCTYPE svg PUBLIC "-//W3C//DTD SVG 1.1//EN" "http://www.w3.org/Graphics/SVG/1.1/DTD/svg11.dtd">
<svg version="1.1" id="Layer_1" xmlns="http://www.w3.org/2000/svg" xmlns:xlink="http://www.w3.org/1999/xlink" x="0px" y="0px"
	 width="500px" height="500px" viewBox="0 0 500 500" enable-background="new 0 0 500 500" xml:space="preserve">
<g>
	<path fill="#F05B22" d="M490.645,256.344c-16.219,16.574-32.852,32.726-48.654,49.724c-14.508,15.607-30.035,30.271-45.113,45.35
		c-13.25,13.251-27.146,25.929-39.543,39.937c-10.099,11.407-20.836,22.01-32.944,30.984
		c-29.045,21.528-61.772,34.892-97.811,37.787c-26.692,2.146-53.387,0.366-79.315-8.221C104.5,437.745,70.269,412.05,44.51,375.53
		c-20.772-29.451-33.042-62.772-36.118-98.641c-1.926-22.455-1.711-45.347,3.755-67.523c12.828-52.027,39.807-94.678,84.604-125.215
		c21.357-14.559,44.541-24.516,69.935-29.873c7.412-1.563,17.422-3.441,26.18-4.841c9.586-1.533,22.259-1.249,31.019,0
		c11.287,1.609,17.044,3.006,25.492,5.06c18.805,4.572,36.732,11.188,53.716,20.481c24.137,13.207,43.406,32.463,62.735,51.387
		c41.479,40.608,81.999,82.195,123.931,122.353c0.449,0.43,3.993,3.892,3.993,3.892S490.933,256.051,490.645,256.344z
		 M216.13,261.837c0-17.216,0.149-34.434-0.103-51.646c-0.064-4.36,0.821-6.01,5.543-5.776c8.372,0.414,16.796-0.206,25.167,0.227
		c5.669,0.292,4.366-3.365,4.215-6.265c-0.149-2.881,2.068-7.208-4.252-6.872c-7.939,0.423-15.958-0.384-23.868,0.258
		c-6.067,0.493-6.978-1.795-6.827-7.147c0.378-13.331,0.221-26.683,0.029-40.022c-0.031-2.175,2.076-5.707-3.038-6.112
		c-4.167-0.33-6.779,1.045-6.96,4.915c-0.302,6.433-2.446,12.436-4.36,18.307c-6.023,18.473-16.959,34.38-40.117,34.979
		c-3.546,0.091-3.564,1.686-3.665,4.33c-0.112,2.939,1.041,3.658,3.751,3.568c5.159-0.172,10.367,0.349,15.482-0.151
		c6.13-0.6,8.283,0.847,8.188,7.743c-0.455,32.704-0.186,65.417-0.221,98.129c-0.005,5.532-0.041,11.045,1.331,16.461
		c2.482,9.807,7.882,17.989,17.577,20.775c18.91,5.436,37.929-0.453,50.76-17.067c2.048-2.652,2.458-4.123-1.17-6.908
		c-5.452-4.186-7.024,1.041-9.734,2.688c-6.219,3.778-12.157,5.371-18.968,1.538c-6.47-3.641-8.876-9.057-8.81-16.238
		C216.234,294.979,216.13,278.406,216.13,261.837z"/>
	<path fill-rule="evenodd" clip-rule="evenodd" fill="#FFFFFF" d="M216.13,261.837c0,16.569,0.104,33.142-0.048,49.711
		c-0.066,7.182,2.339,12.598,8.81,16.238c6.811,3.833,12.749,2.24,18.968-1.538c2.709-1.646,4.282-6.873,9.734-2.688
		c3.628,2.785,3.218,4.256,1.17,6.908c-12.832,16.614-31.851,22.503-50.76,17.067c-9.695-2.786-15.095-10.969-17.577-20.775
		c-1.372-5.416-1.336-10.929-1.331-16.461c0.035-32.712-0.234-65.425,0.221-98.129c0.095-6.896-2.058-8.343-8.188-7.743
		c-5.115,0.5-10.324-0.021-15.482,0.151c-2.71,0.09-3.863-0.628-3.751-3.568c0.101-2.644,0.119-4.238,3.665-4.33
		c23.158-0.599,34.094-16.506,40.117-34.979c1.914-5.871,4.059-11.874,4.36-18.307c0.182-3.87,2.794-5.245,6.96-4.915
		c5.114,0.406,3.007,3.937,3.038,6.112c0.192,13.34,0.349,26.691-0.029,40.022c-0.151,5.353,0.76,7.64,6.827,7.147
		c7.91-0.642,15.929,0.165,23.868-0.258c6.32-0.337,4.103,3.99,4.252,6.872c0.151,2.9,1.454,6.558-4.215,6.265
		c-8.371-0.433-16.795,0.187-25.167-0.227c-4.722-0.234-5.607,1.416-5.543,5.776C216.279,227.403,216.13,244.621,216.13,261.837z"/>
</g>
</svg>
